

Genre: Action | Drama | Sci-Fi
Language:English
IMDb:http://www.imdb.com/title/tt1706593/
Source:RUS.CAMrip-RUTOR/MiSTERE Thanks!
Encoder:Tony

Format                                   : AVI
Format/Info                              : Audio Video Interleave
File size                                : 761 MiB
Duration                                 : 1h 15mn
Overall bit rate                         : 1 411 Kbps

Video
ID                                       : 0
Format                                   : MPEG-4 Visual
Format profile                           : Advanced Simple@L5
Format settings, BVOP                    : 2
Format settings, QPel                    : No
Format settings, GMC                     : No warppoints
Format settings, Matrix                  : Default (H.263)
Muxing mode                              : Packed bitstream
Codec ID                                 : XVID
Codec ID/Hint                            : XviD
Duration                                 : 1h 15mn
Bit rate                                 : 1 274 Kbps
Width                                    : 720 pixels
Height                                   : 304 pixels
Display aspect ratio                     : 2.35:1
Frame rate                               : 25.000 fps
Color space                              : YUV
Chroma subsampling                       : 4:2:0
Bit depth                                : 8 bits
Scan type                                : Progressive
Compression mode                         : Lossy
Bits/(Pixel*Frame)                       : 0.233
Stream size                              : 687 MiB (90%)
Writing library                          : XviD 64

Audio
ID                                       : 1
Format                                   : MPEG Audio
Format version                           : Version 1
Format profile                           : Layer 3
Mode                                     : Joint stereo
Mode extension                           : MS Stereo
Codec ID                                 : 55
Codec ID/Hint                            : MP3
Duration                                 : 1h 15mn
Bit rate mode                            : Constant
Bit rate                                 : 128 Kbps
Channel(s)                               : 2 channels
Sampling rate                            : 44.1 KHz
Compression mode                         : Lossy
Stream size                              : 69.0 MiB (9%)
Alignment                                : Split accross interleaves
Interleave, duration                     : 40 ms (1.00 video frame)
Interleave, preload duration             : 500 ms

   
Plot:
 Three high school friends gain superpowers after making an incredible discovery. Soon, though, they find their lives spinning out of control and their bond tested as they embrace their darker sides


Greets:

CRYS,IMAGINE,LKRG,FXG,3Li,FLAWL3SS,TA,iLLUSiON,EMBER,HOPE,BBnRG,NOGRP,ETRG,BHRG,iLLUMiNATi,MiSTERE.ViSiON,DTRG SAFCuk009,LU,TheFalcon007,MYSTiC,PrisM,Noir,WBZ,LAP,Rx,Kingdom,SAFCuk009+Fabreezy,HDLiTE,TWiZTED,ExtraTorrentRG.ELEKTRI4KA,MAGNAT,CM8
               And to all the other p2p grps past and present 